name GIL02_static.mot
datacolumns 141
datarows 4
range 0.65833336 0.68333334
endheader

                time	           pelvis_tx	           pelvis_ty	           pelvis_tz	         pelvis_tilt	         pelvis_list	     pelvis_rotation	       hip_flexion_r	     hip_adduction_r	      hip_rotation_r	        knee_angle_r	       ankle_angle_r	    subtalar_angle_r	         mtp_angle_r	       hip_flexion_l	     hip_adduction_l	      hip_rotation_l	        knee_angle_l	       ankle_angle_l	    subtalar_angle_l	         mtp_angle_l	    lumbar_extension	      lumbar_bending	     lumbar_rotation	    ground_marker_px	    ground_marker_py	    ground_marker_pz	    ground_marker_px	    ground_marker_py	    ground_marker_pz	    ground_marker_px	    ground_marker_py	    ground_marker_pz	    ground_marker_px	    ground_marker_py	    ground_marker_pz	    ground_marker_px	    ground_marker_py	    ground_marker_pz	    ground_marker_px	    ground_marker_py	    ground_marker_pz	    ground_marker_px	    ground_marker_py	    ground_marker_pz	    ground_marker_px	    ground_marker_py	    ground_marker_pz	    ground_marker_px	    ground_marker_py	    ground_marker_pz	    ground_marker_px	    ground_marker_py	    ground_marker_pz	    ground_marker_px	    ground_marker_py	    ground_marker_pz	    ground_marker_px	    ground_marker_py	    ground_marker_pz	    ground_marker_px	    ground_marker_py	    ground_marker_pz	    ground_marker_px	    ground_marker_py	    ground_marker_pz	    ground_marker_px	    ground_marker_py	    ground_marker_pz	    ground_marker_px	    ground_marker_py	    ground_marker_pz	    ground_marker_px	    ground_marker_py	    ground_marker_pz	    ground_marker_px	    ground_marker_py	    ground_marker_pz	    ground_marker_px	    ground_marker_py	    ground_marker_pz	    ground_marker_px	    ground_marker_py	    ground_marker_pz	    ground_marker_px	    ground_marker_py	    ground_marker_pz	    ground_marker_px	    ground_marker_py	    ground_marker_pz	    ground_marker_px	    ground_marker_py	    ground_marker_pz	    ground_marker_px	    ground_marker_py	    ground_marker_pz	    ground_marker_px	    ground_marker_py	    ground_marker_pz	    ground_marker_px	    ground_marker_py	    ground_marker_pz	    ground_marker_px	    ground_marker_py	    ground_marker_pz	    ground_marker_px	    ground_marker_py	    ground_marker_pz	    ground_marker_px	    ground_marker_py	    ground_marker_pz	    ground_marker_px	    ground_marker_py	    ground_marker_pz	    ground_marker_px	    ground_marker_py	    ground_marker_pz	    ground_marker_px	    ground_marker_py	    ground_marker_pz	    ground_marker_px	    ground_marker_py	    ground_marker_pz	    ground_marker_px	    ground_marker_py	    ground_marker_pz	    ground_marker_px	    ground_marker_py	    ground_marker_pz	    ground_marker_px	    ground_marker_py	    ground_marker_pz	    ground_marker_px	    ground_marker_py	    ground_marker_pz	    ground_marker_px	    ground_marker_py	    ground_marker_pz	    ground_marker_px	    ground_marker_py	    ground_marker_pz	
          0.65833336	          1.56505752	          0.96100962	         -0.24772680	         -4.86188316	          1.99329567	         -2.51148701	          2.05496693	         -7.33661413	         11.37413502	         -1.16216063	          3.87836289	          0.00000000	          0.00000000	         -0.68057060	         -1.85370362	          4.86588335	         -1.52782476	          6.22964573	          0.00000000	          0.00000000	         -3.27533317	          3.13400173	         -4.48804903	          1.47829342	          0.90543365	         -0.24907574	          1.46580029	          0.88030595	         -0.17922583	          1.47362483	          0.88339651	         -0.32941973	          1.44293845	          0.47032079	         -0.13604546	          1.43320489	          0.46031526	         -0.35402372	          1.40693736	          0.06916557	         -0.13023278	          1.38362098	          0.07126734	         -0.36334017	          1.56505752	          0.96100962	         -0.24772680	          1.55886865	          0.95856518	         -0.12893289	          1.57124627	          0.96345401	         -0.36652070	          1.37864757	          1.01769757	         -0.22402228	          1.38854027	          1.01571953	         -0.30981845	          1.45215166	          0.47607547	         -0.07652864	          1.44155860	          0.46296901	         -0.41338003	          1.42636037	          0.47802719	         -0.18590306	          1.42951834	          0.46502340	         -0.30472094	          1.39150584	          0.07111575	         -0.09121913	          1.36502242	          0.07450926	         -0.39973500	          1.41576648	          0.08299529	         -0.15787435	          1.39068925	          0.08329442	         -0.33834663	          1.34279954	          0.04260498	         -0.14402564	          1.31758094	          0.04294395	         -0.35220498	          1.48425162	          1.36949790	         -0.23734255	          1.56680000	          1.20617437	         -0.24834348	          1.37168539	          1.43594575	         -0.24208423	          1.49412048	          1.35816085	         -0.18460165	          1.50897789	          1.36510551	         -0.29217151	          1.52578318	          0.03950565	         -0.09930839	          1.50057864	          0.04110480	         -0.40173852	          1.50571001	          0.59137768	         -0.01153526	          1.59559929	          0.55314219	         -0.34163707	          1.52207100	          0.65218824	         -0.08411525	          1.53659856	          0.61890447	         -0.38275701	          1.51300132	          0.56405169	         -0.09960488	          1.51203477	          0.53584749	         -0.38662779	          1.41793895	          0.20529436	         -0.00635769	          1.40710294	          0.21147168	         -0.47982877	          1.40612483	          0.17217413	         -0.07920326	          1.38612640	          0.17405377	         -0.41095027	
          0.66666669	          1.56508613	          0.96108460	         -0.24778491	         -4.83034325	          1.96219349	         -2.51108313	          2.01133060	         -7.30020905	         11.36153698	         -1.15887523	          3.89039803	          0.00000000	          0.00000000	         -0.72730160	         -1.88591933	          4.89620066	         -1.50563622	          6.22386217	          0.00000000	          0.00000000	         -3.30478859	          3.14371467	         -4.48063231	          1.47824955	          0.90534866	         -0.24909210	          1.46588469	          0.88036174	         -0.17922589	          1.47368288	          0.88337886	         -0.32942268	          1.44295418	          0.47033560	         -0.13610199	          1.43316078	          0.46031624	         -0.35405657	          1.40692890	          0.06916445	         -0.13023482	          1.38362122	          0.07128065	         -0.36333141	          1.56508613	          0.96108460	         -0.24778491	          1.55891967	          0.95869887	         -0.12901919	          1.57125247	          0.96347028	         -0.36655062	          1.37864923	          1.01766193	         -0.22412437	          1.38857412	          1.01567256	         -0.30985746	          1.45216417	          0.47608030	         -0.07658369	          1.44153893	          0.46296975	         -0.41340944	          1.42626429	          0.47801831	         -0.18575034	          1.42948186	          0.46553305	         -0.30402774	          1.39149582	          0.07112091	         -0.09122212	          1.36503708	          0.07451500	         -0.39973429	          1.41574192	          0.08296691	         -0.15789367	          1.39060736	          0.08323950	         -0.33830622	          1.34278417	          0.04260616	         -0.14400469	          1.31759489	          0.04293755	         -0.35221550	          1.48429155	          1.36954165	         -0.23737900	          1.56684637	          1.20621932	         -0.24835299	          1.37175655	          1.43595541	         -0.24207056	          1.49417686	          1.35822177	         -0.18464518	          1.50900173	          1.36513329	         -0.29220572	          1.52576351	          0.03954046	         -0.09932255	          1.50060439	          0.04109444	         -0.40173420	          1.50573719	          0.59139115	         -0.01161537	          1.59564149	          0.55318642	         -0.34171382	          1.52217209	          0.65227723	         -0.08424238	          1.53669274	          0.61891854	         -0.38273692	          1.51300132	          0.56405169	         -0.09960488	          1.51192176	          0.53602415	         -0.38635537	          1.41797864	          0.20532812	         -0.00637746	          1.40709198	          0.21147022	         -0.47983018	          1.40641332	          0.17224899	         -0.07935964	          1.38610804	          0.17418104	         -0.41093701	
          0.67500001	          1.56511235	          0.96115828	         -0.24783766	         -4.79973793	          1.93343353	         -2.51095867	          1.97031498	         -7.26651192	         11.34925270	         -1.15846598	          3.90188932	          0.00000000	          0.00000000	         -0.76732826	         -1.91752017	          4.91215467	         -1.49293196	          6.22719860	          0.00000000	          0.00000000	         -3.35229087	          3.17130303	         -4.47688341	          1.47825742	          0.90529633	         -0.24916524	          1.46596408	          0.88041538	         -0.17922530	          1.47373867	          0.88336456	         -0.32942462	          1.44297600	          0.47035524	         -0.13615406	          1.43315864	          0.46033365	         -0.35409704	          1.40691614	          0.06917525	         -0.13023421	          1.38363647	          0.07128876	         -0.36332837	          1.56511235	          0.96115828	         -0.24783766	          1.55896604	          0.95882678	         -0.12909673	          1.57125854	          0.96348977	         -0.36657858	          1.37866044	          1.01761520	         -0.22422799	          1.38861251	          1.01563823	         -0.30993372	          1.45218170	          0.47609091	         -0.07663424	          1.44154727	          0.46299052	         -0.41344830	          1.42617428	          0.47823685	         -0.18575847	          1.42943692	          0.46591982	         -0.30377272	          1.39148080	          0.07113830	         -0.09122273	          1.36505818	          0.07451748	         -0.39973471	          1.41577744	          0.08292226	         -0.15789953	          1.39055872	          0.08319937	         -0.33834264	          1.34276760	          0.04260656	         -0.14398836	          1.31760323	          0.04292527	         -0.35221791	          1.48434186	          1.36956930	         -0.23742057	          1.56685162	          1.20622587	         -0.24841589	          1.37180603	          1.43601882	         -0.24205814	          1.49423277	          1.35824442	         -0.18468820	          1.50904214	          1.36515725	         -0.29225227	          1.52573550	          0.03956799	         -0.09933577	          1.50062335	          0.04109616	         -0.40173340	          1.50575304	          0.59140670	         -0.01169615	          1.59570313	          0.55323672	         -0.34179187	          1.52234530	          0.65239775	         -0.08425871	          1.53682756	          0.61897707	         -0.38287017	          1.51301682	          0.56411004	         -0.09960621	          1.51191294	          0.53612280	         -0.38631245	          1.41801274	          0.20535642	         -0.00640406	          1.40707195	          0.21147364	         -0.47984582	          1.40635967	          0.17228216	         -0.07943705	          1.38611519	          0.17424875	         -0.41095257	
          0.68333334	          1.56513536	          0.96122843	         -0.24788310	         -4.77101135	          1.90745819	         -2.51110315	          1.93362331	         -7.23561239	         11.33667374	         -1.16160059	          3.91160345	          0.00000000	          0.00000000	         -0.80088329	         -1.94726121	          4.91788101	         -1.48754740	          6.23722458	          0.00000000	          0.00000000	         -3.38486362	          3.26096773	         -4.50550079	          1.47832155	          0.90527850	         -0.24927178	          1.46603656	          0.88046569	         -0.17922287	          1.47379029	          0.88335347	         -0.32942450	          1.44300628	          0.47037494	         -0.13620201	          1.43318665	          0.46035942	         -0.35413855	          1.40690351	          0.06919630	         -0.13023041	          1.38366246	          0.07128824	         -0.36332914	          1.56513536	          0.96122843	         -0.24788310	          1.55900669	          0.95894593	         -0.12916288	          1.57126403	          0.96351093	         -0.36660331	          1.37868679	          1.01756155	         -0.22432265	          1.38865733	          1.01561117	         -0.31002936	          1.45220613	          0.47610241	         -0.07668053	          1.44157600	          0.46302179	         -0.41348943	          1.42624438	          0.47822979	         -0.18569273	          1.42939782	          0.46613786	         -0.30387661	          1.39146483	          0.07116631	         -0.09122059	          1.36508405	          0.07451304	         -0.39973578	          1.41581285	          0.08292417	         -0.15788241	          1.39074433	          0.08331028	         -0.33839980	          1.34275138	          0.04260575	         -0.14397754	          1.31760740	          0.04291036	         -0.35221314	          1.48440254	          1.36962175	         -0.23746613	          1.56691349	          1.20628762	         -0.24859066	          1.37182176	          1.43611550	         -0.24214791	          1.49425006	          1.35823345	         -0.18464459	          1.50914693	          1.36527419	         -0.29238430	          1.52571023	          0.03958446	         -0.09934382	          1.50063479	          0.04110947	         -0.40173689	          1.50575888	          0.59142578	         -0.01177881	          1.59578228	          0.55329210	         -0.34187225	          1.52234769	          0.65251309	         -0.08422080	          1.53693223	          0.61905116	         -0.38321653	          1.51303601	          0.56409878	         -0.09956063	          1.51196504	          0.53605419	         -0.38649133	          1.41803873	          0.20538305	         -0.00643792	          1.40704453	          0.21148035	         -0.47987133	          1.40629649	          0.17229122	         -0.07936841	          1.38617516	          0.17413493	         -0.41090325	
